# xmcd CD Database Entry
#
# Track frame offsets:
# 150
# 16532
# 33785
# 53902
# 72820
# 93654
# 131995
# 148857
# 170100
# 187957
#
# Disc length: 2774 seconds
#
# Revision: 2
# Processed by: cddbd v1.4PL0 Copyright (c) Steve Scherf et al.
# Submitted via: tcd 2.0b
#
DISCID=890ad40a
DTITLE=À¾Â¼¥Ò¥í &¾ÈËÜ»Ë/ Double Hat
DYEAR=1900
DGENRE=
TTITLE0=Asian Fantasy
TTITLE1=Va Va Voom
TTITLE2=Nonborder Song
TTITLE3=Double Hat
TTITLE4=An Old Man In New York
TTITLE5=Duke Ellington Medley
TTITLE6=Exotic Jungle
TTITLE7=Savanna Sunset
TTITLE8=St.Thomas
TTITLE9=Amazing Grace
EXTD=
EXTT0=F.Terumoto
EXTT1=Gil Evans
EXTT2=F.Terumoto
EXTT3=F.Terumoto
EXTT4=H.Nishimura
EXTT5=Duke Ellington\nTake The A-Train~Caravan~Come Sunday 
EXTT6=F.Terumoto
EXTT7=F.Terumoto
EXTT8=Sonny Rollins
EXTT9=Traditional
PLAYORDER=
